<?xml version="1.0" encoding="UTF-8"?>
<svg id="Layer_1" data-name="Layer 1" xmlns="http://www.w3.org/2000/svg" viewBox="0 0 157 103">
  <defs>
    <style>
      .cls-1 {
        fill: #00af3f;
      }

      .cls-2 {
        fill: #fcb033;
      }

      .cls-3 {
        fill: #70d0f6;
      }

      .cls-4 {
        fill: #7482bf;
      }

      .cls-5 {
        fill: #c4acd3;
      }

      .cls-6 {
        fill: #009ddc;
      }

      .cls-7 {
        fill: #005AA5;
      }

      .cls-8 {
        fill: #9fcf67;
      }

      .cls-9 {
        fill: #ffd204;
      }

      .cls-10 {
        fill: #f68233;
      }
    </style>
  </defs>
  <g>
    <g>
      <path class="cls-7" d="M16.73,91.17h-.83v3.61h-1.5v-9h2.33c1.78,0,2.21,1.12,2.21,2.69s-.42,2.69-2.21,2.69ZM16.6,87.02h-.71v2.9h.71c.75,0,.86-.47.86-1.46s-.11-1.45-.86-1.45Z"/>
      <path class="cls-7" d="M31.62,92.72c0,1.35-.87,2.22-2.26,2.22s-2.26-.87-2.26-2.22v-4.86c0-1.35.87-2.22,2.26-2.22s2.26.87,2.26,2.22v4.86ZM30.12,87.82c0-.47-.16-.87-.76-.87s-.76.4-.76.87v4.93c0,.47.16.87.76.87s.76-.4.76-.87v-4.93Z"/>
      <path class="cls-7" d="M41.56,93.46h2.26v1.32h-3.74v-9h1.48v7.68Z"/>
      <path class="cls-7" d="M52.92,94.78v-3.68l-1.74-5.32h1.51l1.01,3.63,1.01-3.63h1.51l-1.74,5.32v3.68h-1.55Z"/>
      <path class="cls-7" d="M67.13,87.12v7.66h-1.48v-7.66h-1.58v-1.33h4.62v1.33h-1.56Z"/>
      <path class="cls-7" d="M78.39,89.5h1.74v1.26h-1.74v2.69h2.47v1.33h-3.95v-9h3.85v1.31h-2.37v2.4Z"/>
      <path class="cls-7" d="M91.96,89.14v-1.36c0-.5-.2-.82-.71-.82-.56,0-.79.32-.79.86v4.93c0,.55.22.86.79.86.51,0,.71-.32.71-.82v-1.46h1.45v1.42c0,1.33-.82,2.18-2.17,2.18s-2.27-.87-2.27-2.22v-4.86c0-1.35.91-2.22,2.27-2.22s2.17.85,2.17,2.18v1.32h-1.45Z"/>
      <path class="cls-7" d="M104.93,94.78v-3.89h-1.58v3.89h-1.48v-9h1.48v3.79h1.58v-3.79h1.48v9h-1.48Z"/>
      <path class="cls-7" d="M118.5,94.78l-2.01-5.53v5.53h-1.35v-9h1.35l1.88,5.31v-5.31h1.35v9h-1.22Z"/>
      <path class="cls-7" d="M129.91,94.78h-1.48v-9h1.48v9Z"/>
      <path class="cls-7" d="M141.39,89.14v-1.36c0-.5-.2-.82-.71-.82-.56,0-.79.32-.79.86v4.93c0,.55.22.86.79.86.51,0,.71-.32.71-.82v-1.46h1.45v1.42c0,1.33-.82,2.18-2.17,2.18s-2.27-.87-2.27-2.22v-4.86c0-1.35.91-2.22,2.27-2.22s2.17.85,2.17,2.18v1.32h-1.45Z"/>
    </g>
    <g>
      <g>
        <path class="cls-7" d="M86.55,42.31l9.66,23.55s4.47-9.22,5.23-11.04c.89,1.86,4.86,11.04,4.86,11.04l8.6-23.18c.81-2.21,1.75-3.12,2.87-3.12s2.55.78,2.55,3.4l-.03,17.59c0,2.35-.2,2.93-1.67,3.57l.26.92,5.55.02.11-.91c-.68-.29-.91-.48-1.13-.82-.2-.35-.27-.63-.32-1.2-.03-.37-.03-.51-.03-1.26.03-8.59,0-14.73.02-16.88,1.34,1.59,10.73,12.51,18.98,22.02l.06-23.2c.02-2.65.37-3.14,1.8-3.57l-.22-.96h-5.85l-.1.92c.76.33,1.01.56,1.2.92.2.38.29,1.04.36,1.8.03.29.04.59.05.87,0,0,0,9.44,0,12.64-1.12-1.33-14.87-17.16-14.87-17.16h-13.17s-.11,1.26-.11,1.26c1.01.2,1.22.4,1.22.97,0,.26.02.26-.25.96,0,0-3.94,10.71-5.31,14.46-.71-1.77-2.79-6.84-2.92-7.15.14-.34,2.72-6.57,2.72-6.57.67-1.52,1.38-2.37,2.27-2.72l-.23-1.22h-14.23s-.34,1.2-.34,1.2c.92.52,1.55,1.01,2.24,2.75,0,0,2.97,7.55,3.45,8.77-.91,2.14-1.78,4.06-2.42,5.62-.79-1.91-5.48-13.46-5.48-13.46-.3-.75-1.03-2.39-1.04-2.68,0-.35.03-.73.86-.92l-.16-1.22h-7.08l-.32,1.1.08.06c1.44.84,1.69,1.66,2.26,2.84ZM101.02,40.98c-.22-.61-.19-1.5,1.29-1.5s1.82.64,1.56,1.41c-.21.64-1.45,3.81-1.45,3.81,0,0-1.19-3.1-1.41-3.72Z"/>
        <path class="cls-7" d="M81.89,42.16c-2.74-2.75-6.55-4.26-10.7-4.26-8.1,0-14.45,6.04-14.46,13.76-.01,3.67,1.38,7.07,3.89,9.58,2.7,2.69,6.51,4.21,10.62,4.21,8.34,0,14.59-5.9,14.6-13.67.01-3.65-1.39-7.08-3.96-9.61ZM71.21,62.85c-2.32,0-4.42-.91-6.02-2.51-2.05-2.06-3.17-5.17-3.16-8.77,0-6.46,3.77-11.05,9.16-11.05,2.34,0,4.44.94,6.09,2.57,2.06,2.06,3.19,5.13,3.19,8.64-.01,6.4-3.89,11.12-9.25,11.12Z"/>
      </g>
      <path class="cls-7" d="M78.8,12.32c-2.76-2.75-6.55-4.26-10.71-4.26-8.08,0-14.43,6.04-14.45,13.76,0,3.67,1.38,7.06,3.9,9.58,2.7,2.69,6.52,4.2,10.62,4.2,8.33,0,14.6-5.89,14.61-13.67,0-3.66-1.4-7.08-3.96-9.62ZM68.12,33.03c-2.33,0-4.42-.92-6.02-2.53-2.05-2.04-3.18-5.16-3.17-8.77,0-6.46,3.78-11.05,9.17-11.05,2.34,0,4.45.94,6.1,2.57,2.05,2.06,3.19,5.12,3.18,8.64,0,6.4-3.89,11.13-9.25,11.13ZM90.82,10.89h1.91c.7,0,2.46.08,3.62,1.25.67.66,1.05,1.57,1.16,2.7.02.21.03.44.03.67,0,4.89-4.5,5.13-5.41,5.13h-1.34c0-.65.03-9.2.04-9.75ZM101.84,26.02c-1.09-2.52-3.1-3.66-4.81-4.24.66-.13,1.08-.23,1.79-.54,2.28-.99,3.77-3.03,3.77-5.83,0-.23,0-.45-.03-.67-.17-1.85-1.08-3.5-2.55-4.6-1.8-1.3-3.39-1.69-6.84-1.69h-8.64l-.1.93c1.17.45,1.59.94,1.58,3.32l-.05,18.35c.02,2.37-.65,2.87-1.58,3.23l.24.93,7.68.02.08-.95c-.56-.19-.91-.35-1.07-.64-.25-.43-.43-.97-.5-1.75-.03-.29-.03-.61-.04-.93,0,0,0-6.55,0-7.98h1.39c1.14,0,3.16.03,4.79,3.35l2,4.88c1.31,3.11,2.04,4.01,4.14,4.01h3.74s.15-.94.15-.94c-.82-.21-1.25-.39-1.65-.86-.64-.74-1.24-1.98-1.79-3.31l-.73-1.79-.98-2.3ZM130.76,30.28c0,.15,0,.27.01.38.02.35.41.7.6.92l.29.3-.43.31c-2.94,2.06-7.56,3.45-11.51,3.45-4.23,0-7.99-1.42-10.57-4-2.5-2.48-3.85-5.89-3.83-9.79,0-7.97,6.07-13.79,14.38-13.79,3.38,0,6.29.82,9.73,2.74l.25.17.21,7.02h-.97c-.91-4.17-4.55-7.25-8.93-7.25-5.43,0-9.52,4.8-9.52,11.1,0,3.47,1,6.38,3,8.37,1.78,1.78,4.27,2.74,7.1,2.74,2.05,0,3.01-.26,5.88-1.7,0,0,.09-.05.18-.11,0-.92-.05-7.87-.05-7.87,0-.23,0-.43-.02-.62-.1-1.17-.57-1.67-1.48-2.07l.11-.9h6.68s.29.89.29.89c-1.13.61-1.47,1.14-1.47,2.65,0,.01.06,7.07.06,7.07ZM135.25,19.54l.02-6.85c0-2.28-.35-2.86-1.59-3.39l.27-.9h16.04v4s-.94.1-.94.1c-.25-.68-.46-.93-.83-1.12-.5-.25-1.45-.41-2.35-.41h-5.82c0,.6,0,7.73-.01,8.38h3.88c1.29,0,1.73-.05,2.2-.34.56-.26.65-.44.87-.96l.95.13-.03,4.95-.9.12c-.15-.46-.58-.89-.92-1.01-.4-.19-.88-.3-2.17-.3h-3.88c0,.58,0,9.9,0,10.57h5.89c1.69,0,2.4-.13,3.34-.44.54-.18,1.06-.45,1.51-1.04l.84.48-.86,3.62h-16.87l-.26-.89c1.24-.53,1.59-1.07,1.61-3.34,0,0,0-8.42,0-9.11v-2.27ZM42.85,41.06h1.91c.7,0,2.45.08,3.61,1.24.66.66,1.05,1.57,1.16,2.7.02.21.03.44.03.67-.01,4.89-4.51,5.13-5.41,5.13h-1.33c0-.65.02-9.2.03-9.75ZM53.86,56.19c-1.09-2.53-3.09-3.66-4.8-4.25.66-.12,1.08-.23,1.79-.54,2.28-.99,3.77-3.03,3.77-5.83,0-.23,0-.44-.03-.66-.17-1.85-1.08-3.51-2.56-4.6-1.8-1.3-3.4-1.69-6.84-1.69h-8.64s-.1.93-.1.93c1.18.45,1.59.94,1.57,3.32l-.04,18.35c.03,2.38-.65,2.87-1.57,3.23l.25.96h7.67l.08-.96c-.56-.18-.91-.34-1.07-.64-.25-.44-.43-.98-.5-1.74-.03-.31-.04-.62-.04-.94,0,0,0-6.55,0-7.98h1.39c1.14,0,3.17.03,4.8,3.35l1.99,4.88c1.31,3.1,2.04,4.01,4.15,4.01h3.73s.15-.96.15-.96c-.82-.2-1.25-.38-1.65-.85-.65-.75-1.24-1.99-1.79-3.31l-.74-1.79-.97-2.29ZM27.18,45.34c0,2.55-2.03,4.33-4.91,4.33h-2.79c0-.58.01-8.35.01-8.84h2.82c1.42,0,2.7.49,3.6,1.4.72.72,1.15,1.65,1.25,2.68.01.14.02.29.02.43ZM19.83,52.03h2.95c2.29,0,4.16.68,5.37,1.9.84.84,1.34,1.94,1.46,3.18.02.21.03.41.03.61,0,3.27-2.41,5.29-6.25,5.29h-3.57c0-.59,0-10.49.01-10.98ZM24.24,65.46c2.46,0,3.93-.22,5.4-.9,1.05-.46,1.97-1.1,2.73-1.98,1.16-1.35,1.73-2.77,1.73-4.49,0-.24,0-.46-.03-.7-.29-3.08-2.34-5.54-5.5-6.51-.38-.12-.61-.19-1.03-.27.54-.21.94-.38,1.56-.79,1.64-1.07,2.7-2.96,2.72-5.05,0-.16-.01-.32-.03-.48-.23-2.44-2.69-4.91-5.73-5.54-1.06-.22-1.96-.32-3.72-.32h-8.62l-.02.87c.75.2,1.18.53,1.31,1.95.03.32.04.68.05,1.11l-.08,19.37c0,.44-.03.69-.06,1-.14,1.41-.53,1.6-1.29,1.79l.02.92h10.57ZM54.25,32.12l-.89,3.71h-18.01l-.28-.91c1.32-.54,1.69-1.09,1.69-3.43,0,0-.02-6.69-.03-9.18h-3.18c-1.17,0-1.56.91-1.55,2.11,0,.02.08,6.56.08,6.56,0,.15,0,.27.01.38.02.35.43.7.64.92l.3.31-.45.31c-3.05,2.06-7.86,3.44-11.96,3.44-4.4,0-8.33-1.42-11.03-3.99-2.61-2.48-4.1-6.6-4.12-10.49-.03-7.97,6.26-13.79,14.89-13.79,3.52,0,6.55.82,10.14,2.74l.27.17.21,6.78h-1.01c-.94-3.77-4.76-7.01-9.31-7.01-5.64,0-9.87,4.8-9.85,11.1.02,3.47,1.16,7.09,3.25,9.08,1.86,1.77,4.46,2.74,7.41,2.74,2.13,0,3.14-.25,6.1-1.71,0,0,.1-.05.19-.11,0-.91-.09-8.6-.09-8.6,0-.22,0-.42-.03-.62-.11-1.17-.61-1.67-1.56-2.08l.12-.91h10.5l-.03-6.84c0-2.34-.39-2.93-1.71-3.47l.3-.92h17.13v4.1s-.99.1-.99.1c-.27-.7-.48-.96-.88-1.14-.55-.26-1.56-.42-2.52-.42h-6.21c0,.61.04,7.92.05,8.59h4.13c1.37,0,1.85-.05,2.35-.35.59-.27.68-.45.93-.98l1,.13v5.08s-.97.13-.97.13c-.16-.47-.61-.91-.98-1.03-.44-.19-.95-.3-2.33-.3h-4.14c0,.59.06,10.15.06,10.84h6.3c1.8,0,2.56-.13,3.55-.45.58-.19,1.14-.46,1.61-1.07l.9.49Z"/>
    </g>
  </g>
  <g>
    <rect class="cls-1" x="7.06" y="74.89" width="15.88" height="1.18"/>
    <rect class="cls-8" x="22.94" y="74.89" width="15.88" height="1.18"/>
    <rect class="cls-9" x="38.81" y="74.89" width="15.88" height="1.18"/>
    <rect class="cls-6" x="54.69" y="74.89" width="15.88" height="1.18"/>
    <rect class="cls-3" x="70.57" y="74.89" width="15.88" height="1.18"/>
    <rect class="cls-4" x="86.45" y="74.89" width="15.88" height="1.18"/>
    <rect class="cls-5" x="102.32" y="74.89" width="15.88" height="1.18"/>
    <rect class="cls-2" x="118.2" y="74.89" width="15.88" height="1.18"/>
    <rect class="cls-10" x="134.08" y="74.89" width="15.88" height="1.18"/>
  </g>
</svg>